# xmcd CD database file
#
# Track frame offsets:
#	150
#	57110
#	97887
#	139853
#	182826
#	224065
#
# Disc length: 3724 seconds
#
# Revision: 1
# Processed by: cddbd v1.5.2PL0 Copyright (c) Steve Scherf et al.
# Submitted via: CDex 1.70beta2
#
DISCID=560e8a06
DTITLE=Hugo Bistolfi - Música para Reiki
DYEAR=2004
DGENRE=New Age
TTITLE0=Vibraciones
TTITLE1=Luz de Reiki
TTITLE2=Mejora el Ki
TTITLE3=Afinación
TTITLE4=Armonización
TTITLE5=Fluír
EXTD=YEAR: 2004
EXTT0=
EXTT1=
EXTT2=
EXTT3=
EXTT4=
EXTT5=
PLAYORDER=
